<?xml version="1.0" encoding="utf-8"?>
<!-- Generator: Adobe Illustrator 21.0.0, SVG Export Plug-In . SVG Version: 6.00 Build 0)  -->
<svg version="1.1" id="图层_1" xmlns="http://www.w3.org/2000/svg" xmlns:xlink="http://www.w3.org/1999/xlink" x="0px" y="0px"
	 viewBox="0 0 580 200" style="enable-background:new 0 0 580 200;" xml:space="preserve">
<style type="text/css">
	.st0{fill:#161616;}
</style>
<g>
	<path class="st0" d="M563.8,109.7l-1.3-0.5c-1.2-0.5-2.5,0.1-3,1.3c-2,5.4-8.1,18.9-19.5,18c-7.6-0.6-11.5-4.8-11.6-8.9
		c0,0,33-3,31.1-31.9c-1.1-17.5-37.9-26.9-46.2,17.6c0,0-5.1-3.6-4.1-14.3c0,0,4.8-14.4-5.5-17c-10.9-2.8-16.6,6.1-16.2,15.2
		c0.4,9.1,5.2,10.1,5.2,10.1s-8.8,28.3-22.8,28.2c-12.2-0.1,5.2-44.1,6.3-47.8c1.1-3.7-13.4-11-19.1,0.5
		c-8.3,16.6-15.5,43-29.3,40.2c0,0-8.5-4.7,8.2-35c0.5-1,0.8-2.1,0.5-3.2c-1-3.7-4.5-11.1-15.6-6.6c0,0-5.8,2.5-13.4,24.8
		c-8.5,24.9-18.7,28.4-19.6,19.9s14.1-62.4,32.2-97.2c0,0,6-10-11-8.7C392,15.5,372.6,92,369.5,99c-3.2,7.2-13.4,22.2-20.3,18.4
		c-6.9-3.8,8.6-33.8,8.6-33.8s-2.7-13.3-15.7-8c-8.3,5.3-12,20.7-12,20.7s-14.7,31.7-23.5,35c0,0,7.7-21,11.8-30.3
		c4.4-9.9,11.9-26.9-1.9-27.7c-13.8-0.7-16,10.9-17.6,16.7c-1.5,5.1-10.9,32.5-20.4,32.7c-2.4,0.1-4.3-2.1-4.1-4.5
		c0.4-4,3.6-15.8,11.8-34.2c0,0,1.2-11.2-10.5-9.7c-11.7,1.4-17.4,14.8-21.6,38c0,0-4.3,18.4-12.7,16.8c0,0-7.4-1.1,4.8-29.1
		c14.9-34.4-21-25.5-29.8-19.9c-0.2,0.1-1.1,0.5-0.8-0.4c1.2-3.4-16.7-9.3-20.3,3.2c-3.3,11.2-3.2,11.5-3.2,11.5
		s-6.1,18.2-19.8,16.5c0,0,9.4-38.6,14.2-74.2C188.7,20.3,178,14.2,168,13c-10.9-1.2-20.6,2.2-29.9,11
		c-13.6,12.9-28.3,37.5-44.5,62.7c0,0-47.2-17.1-70.2,9c-19.2,21.8-3.9,44.6,24,44.7c29.2,0.1,49.1-8,64.5-31.2
		c0,0,15.3,8.3,35.5,12c0,0-4.4,14.9-0.9,15.2c0,0,14.4,0.1,18.9,0c1,0,1.5-0.8,1.8-1.8c0.8-2.5,1.3-6,2.9-12.5
		c12-1.4,16.9-7.3,16.9-7.3s-3.7,13.3-4,18.5c-0.1,1.4,0.5,2.7,1.9,2.8c3.7,0.3,16.6,0.8,17.4-1.4c1.7-4.7,7.4-27.5,10.3-34.6
		c7.7-18.3,16.5-17.2,16.7-14.4c0.2,2.8-5.2,14.7-7.2,23c-1.7,6.9-3.7,20,2.3,24.7c5.2,4,21.7,4,31-8.7c0,0,6.4,14.4,20.2,11
		c5.6-1.4,9.4-6.5,12.9-9.5c0,0-3.1,8.2-4.4,12.5c0,0-10,1.5-25.2,4.2c-14.6,2.6-24.8,11.1-25.5,22.9c-0.8,13.3,12.4,21.3,23.8,21.3
		c10.3,0,35.2-2.8,44.8-37.2c0,0,18-12.5,25-32.2c0,0,0.1,16.9,12.5,18.6c8.2,1.1,21.1-10.1,31-29.1c0,0-5.2,28.5,15.7,29.4
		c14.9,0.6,20-17.1,20-17.1s2.2,16.8,15.6,16.8c18.6,0,28.6-29.8,28.6-29.8s-7.2,31.9,20.1,30c22-1.5,33-31.2,33-31.2
		s2.4,7.5,8.6,11.8c0,0,0,20,22.1,20.5c21.7,0.5,29.1-18.7,30.9-25C565.4,111.3,564.8,110.1,563.8,109.7z M54.2,129.2
		c-16.1,1.8-20.6-22-2-31.7c15.3-8,34,1.3,34,1.3S70,127.4,54.2,129.2z M166.8,38.5c-4.6,22.4-16.5,69.4-16.5,69.4
		c-17.2-3.1-30.5-10.8-30.5-10.8c13.7-20.8,25.7-49,34.3-59.8c4.7-5.8,8.8-6.6,11.5-5.6C167.8,32.6,167.2,37,166.8,38.5z
		 M260.6,177.9c-13.3,2.1-16.8-5.2-15.5-9.7c3.9-13.7,32.1-13.1,33.9-13.2C279.1,155,275.1,175.6,260.6,177.9z M549.2,92.3
		c-1,15.2-21.5,15.9-21.5,15.9C530.2,82.2,550.1,78.8,549.2,92.3z"/>
	<path class="st0" d="M372.1,41.5c-5.4-11.8-17.2-7.2-18.8-6.4c0,0-15.6,13.6-6,26.2S377.5,53.3,372.1,41.5z"/>
	<path class="st0" d="M451.9,56.5c6-11.6-1.6-24.6-17.7-18c0,0-10.1,8.8-6.1,19.8C432,69.3,445.9,68.1,451.9,56.5z"/>
</g>
</svg>
